<?xml version="1.0" standalone="no"?><!-- Generator: Gravit.io --><svg xmlns="http://www.w3.org/2000/svg" xmlns:xlink="http://www.w3.org/1999/xlink" style="isolation:isolate" viewBox="0 0 277 75" width="277" height="75"><defs><clipPath id="_clipPath_KnXmXVhQqTACSrxRahzQrVTJBeteZEHV"><rect width="277" height="75"/></clipPath></defs><g clip-path="url(#_clipPath_KnXmXVhQqTACSrxRahzQrVTJBeteZEHV)"><rect width="277" height="75" style="fill:rgb(149,16,16)"/><path d=" M 193.536 47.196 L 193.536 47.196 Q 194.16 47.196 194.52 47.772 L 194.52 47.772 L 194.52 47.772 Q 194.88 48.348 194.88 49.356 L 194.88 49.356 L 194.88 49.356 Q 194.88 51.228 193.968 52.332 L 193.968 52.332 L 193.968 52.332 Q 191.664 55.116 189.312 56.628 L 189.312 56.628 L 189.312 56.628 Q 186.96 58.14 183.744 58.14 L 183.744 58.14 L 183.744 58.14 Q 180.192 58.14 177.936 56.052 L 177.936 56.052 L 177.936 56.052 Q 175.68 53.964 173.712 49.548 L 173.712 49.548 L 173.712 49.548 Q 172.272 46.38 171.336 44.82 L 171.336 44.82 L 171.336 44.82 Q 170.4 43.26 169.488 42.612 L 169.488 42.612 L 169.488 42.612 Q 168.576 41.964 167.184 41.82 L 167.184 41.82 L 166.656 45.372 L 166.656 45.372 Q 165.648 52.236 162.744 55.26 L 162.744 55.26 L 162.744 55.26 Q 159.84 58.284 154.752 58.284 L 154.752 58.284 L 154.752 58.284 Q 151.44 58.284 148.872 56.676 L 148.872 56.676 L 148.872 56.676 Q 146.304 55.068 145.296 52.572 L 145.296 52.572 L 145.296 52.572 Q 144.96 51.708 144.96 50.7 L 144.96 50.7 L 144.96 50.7 Q 144.96 49.26 145.632 48.204 L 145.632 48.204 L 145.632 48.204 Q 146.304 47.148 147.36 47.148 L 147.36 47.148 L 147.36 47.148 Q 147.984 47.148 148.416 47.46 L 148.416 47.46 L 148.416 47.46 Q 148.848 47.772 149.232 48.54 L 149.232 48.54 L 149.232 48.54 Q 150.72 51.324 151.848 52.428 L 151.848 52.428 L 151.848 52.428 Q 152.976 53.532 154.656 53.532 L 154.656 53.532 L 154.656 53.532 Q 156.576 53.532 157.944 51.78 L 157.944 51.78 L 157.944 51.78 Q 159.312 50.028 159.888 46.38 L 159.888 46.38 L 160.56 41.82 L 159.792 41.82 L 159.792 41.82 Q 158.688 41.82 158.064 41.196 L 158.064 41.196 L 158.064 41.196 Q 157.44 40.572 157.44 39.468 L 157.44 39.468 L 157.44 39.468 Q 157.44 38.22 158.088 37.476 L 158.088 37.476 L 158.088 37.476 Q 158.736 36.732 159.696 36.732 L 159.696 36.732 L 161.28 36.732 L 161.28 36.732 Q 161.616 34.38 161.76 33.468 L 161.76 33.468 L 163.248 22.668 L 163.248 22.668 Q 162 22.524 160.896 22.524 L 160.896 22.524 L 160.896 22.524 Q 156.816 22.524 154.704 23.94 L 154.704 23.94 L 154.704 23.94 Q 152.592 25.356 152.592 27.996 L 152.592 27.996 L 152.592 27.996 Q 152.592 29.196 152.856 29.94 L 152.856 29.94 L 152.856 29.94 Q 153.12 30.684 153.552 31.596 L 153.552 31.596 L 153.552 31.596 Q 153.744 31.98 153.744 32.46 L 153.744 32.46 L 153.744 32.46 Q 153.744 33.516 152.76 34.308 L 152.76 34.308 L 152.76 34.308 Q 151.776 35.1 150.576 35.1 L 150.576 35.1 L 150.576 35.1 Q 149.04 35.1 148.32 33.756 L 148.32 33.756 L 148.32 33.756 Q 146.88 31.212 146.88 28.284 L 146.88 28.284 L 146.88 28.284 Q 146.88 25.26 148.536 22.764 L 148.536 22.764 L 148.536 22.764 Q 150.192 20.268 153.552 18.756 L 153.552 18.756 L 153.552 18.756 Q 156.912 17.244 161.856 17.244 L 161.856 17.244 L 161.856 17.244 Q 164.016 17.244 165.816 17.484 L 165.816 17.484 L 165.816 17.484 Q 167.616 17.724 169.776 18.396 L 169.776 18.396 L 169.776 18.396 Q 172.128 19.116 172.128 21.084 L 172.128 21.084 L 172.128 21.084 Q 172.128 23.724 169.872 23.724 L 169.872 23.724 L 168 36.636 L 168 36.636 Q 173.616 36.06 177.144 31.812 L 177.144 31.812 L 177.144 31.812 Q 180.672 27.564 183.024 20.268 L 183.024 20.268 L 183.024 20.268 Q 183.456 18.924 184.488 18.204 L 184.488 18.204 L 184.488 18.204 Q 185.52 17.484 187.104 17.484 L 187.104 17.484 L 187.104 17.484 Q 188.448 17.484 189.192 18.084 L 189.192 18.084 L 189.192 18.084 Q 189.936 18.684 189.936 19.788 L 189.936 19.788 L 189.936 19.788 Q 189.936 20.124 189.744 20.892 L 189.744 20.892 L 189.744 20.892 Q 187.344 28.812 182.88 33.468 L 182.88 33.468 L 182.88 33.468 Q 178.416 38.124 173.136 39.66 L 173.136 39.66 L 173.136 39.66 Q 174.96 40.092 176.136 40.956 L 176.136 40.956 L 176.136 40.956 Q 177.312 41.82 178.128 43.092 L 178.128 43.092 L 178.128 43.092 Q 178.944 44.364 180 46.62 L 180 46.62 L 180 46.62 Q 181.488 49.788 182.784 51.108 L 182.784 51.108 L 182.784 51.108 Q 184.08 52.428 185.808 52.428 L 185.808 52.428 L 185.808 52.428 Q 187.344 52.428 188.736 51.396 L 188.736 51.396 L 188.736 51.396 Q 190.128 50.364 192.24 47.868 L 192.24 47.868 L 192.24 47.868 Q 192.816 47.196 193.536 47.196 L 193.536 47.196 Z  M 201.28 32.364 L 201.28 32.364 Q 199.264 32.364 198.256 31.428 L 198.256 31.428 L 198.256 31.428 Q 197.248 30.492 197.248 28.812 L 197.248 28.812 L 197.248 28.812 Q 197.248 27.132 198.568 26.004 L 198.568 26.004 L 198.568 26.004 Q 199.888 24.876 201.856 24.876 L 201.856 24.876 L 201.856 24.876 Q 203.632 24.876 204.736 25.74 L 204.736 25.74 L 204.736 25.74 Q 205.84 26.604 205.84 28.188 L 205.84 28.188 L 205.84 28.188 Q 205.84 30.108 204.592 31.236 L 204.592 31.236 L 204.592 31.236 Q 203.344 32.364 201.28 32.364 L 201.28 32.364 Z  M 200.896 58.14 L 200.896 58.14 Q 197.776 58.14 196.36 55.932 L 196.36 55.932 L 196.36 55.932 Q 194.944 53.724 194.944 50.076 L 194.944 50.076 L 194.944 50.076 Q 194.944 47.916 195.496 44.532 L 195.496 44.532 L 195.496 44.532 Q 196.048 41.148 196.912 38.22 L 196.912 38.22 L 196.912 38.22 Q 197.344 36.684 198.064 36.108 L 198.064 36.108 L 198.064 36.108 Q 198.784 35.532 200.368 35.532 L 200.368 35.532 L 200.368 35.532 Q 202.816 35.532 202.816 37.164 L 202.816 37.164 L 202.816 37.164 Q 202.816 38.364 201.904 42.732 L 201.904 42.732 L 201.904 42.732 Q 200.752 48.012 200.752 49.884 L 200.752 49.884 L 200.752 49.884 Q 200.752 51.324 201.136 52.092 L 201.136 52.092 L 201.136 52.092 Q 201.52 52.86 202.432 52.86 L 202.432 52.86 L 202.432 52.86 Q 203.296 52.86 204.592 51.66 L 204.592 51.66 L 204.592 51.66 Q 205.888 50.46 208.048 47.868 L 208.048 47.868 L 208.048 47.868 Q 208.624 47.196 209.344 47.196 L 209.344 47.196 L 209.344 47.196 Q 209.968 47.196 210.328 47.772 L 210.328 47.772 L 210.328 47.772 Q 210.688 48.348 210.688 49.356 L 210.688 49.356 L 210.688 49.356 Q 210.688 51.276 209.776 52.332 L 209.776 52.332 L 209.776 52.332 Q 205.024 58.14 200.896 58.14 L 200.896 58.14 Z  M 232.208 47.196 L 232.208 47.196 Q 232.832 47.196 233.192 47.772 L 233.192 47.772 L 233.192 47.772 Q 233.552 48.348 233.552 49.356 L 233.552 49.356 L 233.552 49.356 Q 233.552 51.276 232.64 52.332 L 232.64 52.332 L 232.64 52.332 Q 230.576 54.876 228.128 56.508 L 228.128 56.508 L 228.128 56.508 Q 225.68 58.14 222.512 58.14 L 222.512 58.14 L 222.512 58.14 Q 212.72 58.14 212.72 44.364 L 212.72 44.364 L 212.72 44.364 Q 212.72 42.252 212.864 40.092 L 212.864 40.092 L 210.992 40.092 L 210.992 40.092 Q 209.552 40.092 209.048 39.564 L 209.048 39.564 L 209.048 39.564 Q 208.544 39.036 208.544 37.884 L 208.544 37.884 L 208.544 37.884 Q 208.544 35.196 210.704 35.196 L 210.704 35.196 L 213.44 35.196 L 213.44 35.196 Q 214.256 29.916 215.936 25.548 L 215.936 25.548 L 215.936 25.548 Q 217.616 21.18 219.992 18.588 L 219.992 18.588 L 219.992 18.588 Q 222.368 15.996 225.104 15.996 L 225.104 15.996 L 225.104 15.996 Q 227.12 15.996 228.272 17.772 L 228.272 17.772 L 228.272 17.772 Q 229.424 19.548 229.424 22.236 L 229.424 22.236 L 229.424 22.236 Q 229.424 29.676 223.184 35.196 L 223.184 35.196 L 228.56 35.196 L 228.56 35.196 Q 229.328 35.196 229.664 35.532 L 229.664 35.532 L 229.664 35.532 Q 230 35.868 230 36.78 L 230 36.78 L 230 36.78 Q 230 40.092 224.576 40.092 L 224.576 40.092 L 218.72 40.092 L 218.72 40.092 Q 218.624 42.492 218.624 43.836 L 218.624 43.836 L 218.624 43.836 Q 218.624 48.828 219.8 50.844 L 219.8 50.844 L 219.8 50.844 Q 220.976 52.86 223.52 52.86 L 223.52 52.86 L 223.52 52.86 Q 225.584 52.86 227.168 51.612 L 227.168 51.612 L 227.168 51.612 Q 228.752 50.364 230.912 47.868 L 230.912 47.868 L 230.912 47.868 Q 231.488 47.196 232.208 47.196 L 232.208 47.196 Z  M 223.808 20.604 L 223.808 20.604 Q 223.088 20.604 222.2 22.404 L 222.2 22.404 L 222.2 22.404 Q 221.312 24.204 220.52 27.396 L 220.52 27.396 L 220.52 27.396 Q 219.728 30.588 219.2 34.476 L 219.2 34.476 L 219.2 34.476 Q 222.032 32.028 223.448 28.98 L 223.448 28.98 L 223.448 28.98 Q 224.864 25.932 224.864 23.436 L 224.864 23.436 L 224.864 23.436 Q 224.864 20.604 223.808 20.604 L 223.808 20.604 Z  M 239.568 58.14 L 239.568 58.14 Q 236.592 58.14 234.816 55.98 L 234.816 55.98 L 234.816 55.98 Q 233.04 53.82 233.04 50.316 L 233.04 50.316 L 233.04 50.316 Q 233.04 46.476 234.816 43.044 L 234.816 43.044 L 234.816 43.044 Q 236.592 39.612 239.544 37.524 L 239.544 37.524 L 239.544 37.524 Q 242.496 35.436 245.808 35.436 L 245.808 35.436 L 245.808 35.436 Q 246.864 35.436 247.224 35.844 L 247.224 35.844 L 247.224 35.844 Q 247.584 36.252 247.824 37.308 L 247.824 37.308 L 247.824 37.308 Q 248.832 37.116 249.936 37.116 L 249.936 37.116 L 249.936 37.116 Q 252.288 37.116 252.288 38.796 L 252.288 38.796 L 252.288 38.796 Q 252.288 39.804 251.568 43.596 L 251.568 43.596 L 251.568 43.596 Q 250.464 49.116 250.464 51.276 L 250.464 51.276 L 250.464 51.276 Q 250.464 51.996 250.824 52.428 L 250.824 52.428 L 250.824 52.428 Q 251.184 52.86 251.76 52.86 L 251.76 52.86 L 251.76 52.86 Q 252.672 52.86 253.968 51.684 L 253.968 51.684 L 253.968 51.684 Q 255.264 50.508 257.472 47.868 L 257.472 47.868 L 257.472 47.868 Q 258.048 47.196 258.768 47.196 L 258.768 47.196 L 258.768 47.196 Q 259.392 47.196 259.752 47.772 L 259.752 47.772 L 259.752 47.772 Q 260.112 48.348 260.112 49.356 L 260.112 49.356 L 260.112 49.356 Q 260.112 51.276 259.2 52.332 L 259.2 52.332 L 259.2 52.332 Q 257.232 54.78 255.024 56.46 L 255.024 56.46 L 255.024 56.46 Q 252.816 58.14 250.752 58.14 L 250.752 58.14 L 250.752 58.14 Q 249.168 58.14 247.848 57.06 L 247.848 57.06 L 247.848 57.06 Q 246.528 55.98 245.856 54.108 L 245.856 54.108 L 245.856 54.108 Q 243.36 58.14 239.568 58.14 L 239.568 58.14 Z  M 241.296 53.292 L 241.296 53.292 Q 242.352 53.292 243.312 52.044 L 243.312 52.044 L 243.312 52.044 Q 244.272 50.796 244.704 48.732 L 244.704 48.732 L 246.48 39.9 L 246.48 39.9 Q 244.464 39.948 242.76 41.412 L 242.76 41.412 L 242.76 41.412 Q 241.056 42.876 240.048 45.276 L 240.048 45.276 L 240.048 45.276 Q 239.04 47.676 239.04 50.364 L 239.04 50.364 L 239.04 50.364 Q 239.04 51.852 239.64 52.572 L 239.64 52.572 L 239.64 52.572 Q 240.24 53.292 241.296 53.292 L 241.296 53.292 Z  M 40.368 18.06 L 40.368 18.06 Q 41.856 18.348 42.6 19.068 L 42.6 19.068 L 42.6 19.068 Q 43.344 19.788 43.344 20.748 L 43.344 20.748 L 43.344 20.748 Q 43.344 22.332 42.456 23.052 L 42.456 23.052 L 42.456 23.052 Q 41.568 23.772 39.648 23.628 L 39.648 23.628 L 39.648 23.628 Q 35.328 23.292 32.904 23.172 L 32.904 23.172 L 32.904 23.172 Q 30.48 23.052 26.544 23.004 L 26.544 23.004 L 26.544 23.004 Q 24.768 31.836 23.28 40.764 L 23.28 40.764 L 23.28 40.764 Q 22.752 44.028 22.176 48.324 L 22.176 48.324 L 22.176 48.324 Q 21.6 52.62 21.408 55.26 L 21.408 55.26 L 21.408 55.26 Q 21.312 56.652 20.256 57.396 L 20.256 57.396 L 20.256 57.396 Q 19.2 58.14 17.712 58.14 L 17.712 58.14 L 17.712 58.14 Q 16.128 58.14 15.264 57.372 L 15.264 57.372 L 15.264 57.372 Q 14.4 56.604 14.4 55.356 L 14.4 55.356 L 14.4 55.356 Q 14.4 54.204 14.76 51.54 L 14.76 51.54 L 14.76 51.54 Q 15.12 48.876 15.6 45.948 L 15.6 45.948 L 15.6 45.948 Q 16.128 43.02 16.416 40.86 L 16.416 40.86 L 16.416 40.86 Q 16.944 37.212 17.616 33.612 L 17.616 33.612 L 17.616 33.612 Q 18.288 30.012 18.96 26.796 L 18.96 26.796 L 18.96 26.796 Q 19.104 26.076 19.296 25.14 L 19.296 25.14 L 19.296 25.14 Q 19.488 24.204 19.728 23.052 L 19.728 23.052 L 19.728 23.052 Q 15.024 23.196 12.336 23.82 L 12.336 23.82 L 12.336 23.82 Q 9.648 24.444 8.52 25.572 L 8.52 25.572 L 8.52 25.572 Q 7.392 26.7 7.392 28.476 L 7.392 28.476 L 7.392 28.476 Q 7.392 30.108 8.352 31.596 L 8.352 31.596 L 8.352 31.596 Q 8.544 31.932 8.544 32.316 L 8.544 32.316 L 8.544 32.316 Q 8.544 33.228 7.464 34.02 L 7.464 34.02 L 7.464 34.02 Q 6.384 34.812 5.232 34.812 L 5.232 34.812 L 5.232 34.812 Q 4.416 34.812 3.888 34.332 L 3.888 34.332 L 3.888 34.332 Q 2.928 33.516 2.304 32.004 L 2.304 32.004 L 2.304 32.004 Q 1.68 30.492 1.68 28.572 L 1.68 28.572 L 1.68 28.572 Q 1.68 24.492 4.344 22.02 L 4.344 22.02 L 4.344 22.02 Q 7.008 19.548 12.456 18.396 L 12.456 18.396 L 12.456 18.396 Q 17.904 17.244 26.448 17.244 L 26.448 17.244 L 26.448 17.244 Q 31.728 17.244 34.872 17.436 L 34.872 17.436 L 34.872 17.436 Q 38.016 17.628 40.368 18.06 L 40.368 18.06 Z  M 62.4 47.196 L 62.4 47.196 Q 63.024 47.196 63.384 47.772 L 63.384 47.772 L 63.384 47.772 Q 63.744 48.348 63.744 49.356 L 63.744 49.356 L 63.744 49.356 Q 63.744 51.276 62.832 52.332 L 62.832 52.332 L 62.832 52.332 Q 60.624 54.876 58.296 56.508 L 58.296 56.508 L 58.296 56.508 Q 55.968 58.14 52.992 58.14 L 52.992 58.14 L 52.992 58.14 Q 50.544 58.14 49.296 56.724 L 49.296 56.724 L 49.296 56.724 Q 48.048 55.308 48.048 52.62 L 48.048 52.62 L 48.048 52.62 Q 48.048 51.276 48.72 47.82 L 48.72 47.82 L 48.72 47.82 Q 49.344 44.796 49.344 43.644 L 49.344 43.644 L 49.344 43.644 Q 49.344 42.876 48.816 42.876 L 48.816 42.876 L 48.816 42.876 Q 48.192 42.876 47.04 44.484 L 47.04 44.484 L 47.04 44.484 Q 45.888 46.092 44.736 48.732 L 44.736 48.732 L 44.736 48.732 Q 43.584 51.372 42.864 54.3 L 42.864 54.3 L 42.864 54.3 Q 41.952 58.14 38.352 58.14 L 38.352 58.14 L 38.352 58.14 Q 36.912 58.14 36.456 57.108 L 36.456 57.108 L 36.456 57.108 Q 36 56.076 36 53.388 L 36 53.388 L 36 53.388 Q 36 51.852 36.048 50.94 L 36.048 50.94 L 36.096 47.1 L 36.096 47.1 Q 36.096 39.708 37.608 31.692 L 37.608 31.692 L 37.608 31.692 Q 39.12 23.676 42.072 18.228 L 42.072 18.228 L 42.072 18.228 Q 45.024 12.78 49.152 12.78 L 49.152 12.78 L 49.152 12.78 Q 51.36 12.78 52.728 14.676 L 52.728 14.676 L 52.728 14.676 Q 54.096 16.572 54.096 19.596 L 54.096 19.596 L 54.096 19.596 Q 54.096 24.444 51.264 29.652 L 51.264 29.652 L 51.264 29.652 Q 48.432 34.86 42.048 41.82 L 42.048 41.82 L 42.048 41.82 Q 41.904 44.316 41.904 46.956 L 41.904 46.956 L 41.904 46.956 Q 43.488 42.876 45.432 40.308 L 45.432 40.308 L 45.432 40.308 Q 47.376 37.74 49.272 36.636 L 49.272 36.636 L 49.272 36.636 Q 51.168 35.532 52.752 35.532 L 52.752 35.532 L 52.752 35.532 Q 55.872 35.532 55.872 38.652 L 55.872 38.652 L 55.872 38.652 Q 55.872 40.524 54.816 45.42 L 54.816 45.42 L 54.816 45.42 Q 53.904 49.596 53.904 50.94 L 53.904 50.94 L 53.904 50.94 Q 53.904 52.86 55.296 52.86 L 55.296 52.86 L 55.296 52.86 Q 56.256 52.86 57.576 51.684 L 57.576 51.684 L 57.576 51.684 Q 58.896 50.508 61.104 47.868 L 61.104 47.868 L 61.104 47.868 Q 61.68 47.196 62.4 47.196 L 62.4 47.196 Z  M 48.144 17.532 L 48.144 17.532 Q 47.28 17.532 46.224 20.004 L 46.224 20.004 L 46.224 20.004 Q 45.168 22.476 44.184 26.676 L 44.184 26.676 L 44.184 26.676 Q 43.2 30.876 42.576 35.82 L 42.576 35.82 L 42.576 35.82 Q 45.552 32.316 47.496 28.188 L 47.496 28.188 L 47.496 28.188 Q 49.44 24.06 49.44 20.7 L 49.44 20.7 L 49.44 20.7 Q 49.44 19.164 49.104 18.348 L 49.104 18.348 L 49.104 18.348 Q 48.768 17.532 48.144 17.532 L 48.144 17.532 Z  M 81.264 47.196 L 81.264 47.196 Q 81.888 47.196 82.248 47.772 L 82.248 47.772 L 82.248 47.772 Q 82.608 48.348 82.608 49.356 L 82.608 49.356 L 82.608 49.356 Q 82.608 51.276 81.696 52.332 L 81.696 52.332 L 81.696 52.332 Q 79.92 54.492 76.68 56.316 L 76.68 56.316 L 76.68 56.316 Q 73.44 58.14 69.744 58.14 L 69.744 58.14 L 69.744 58.14 Q 64.704 58.14 61.92 55.404 L 61.92 55.404 L 61.92 55.404 Q 59.136 52.668 59.136 47.916 L 59.136 47.916 L 59.136 47.916 Q 59.136 44.604 60.528 41.748 L 60.528 41.748 L 60.528 41.748 Q 61.92 38.892 64.392 37.212 L 64.392 37.212 L 64.392 37.212 Q 66.864 35.532 69.984 35.532 L 69.984 35.532 L 69.984 35.532 Q 72.768 35.532 74.448 37.188 L 74.448 37.188 L 74.448 37.188 Q 76.128 38.844 76.128 41.676 L 76.128 41.676 L 76.128 41.676 Q 76.128 44.988 73.752 47.364 L 73.752 47.364 L 73.752 47.364 Q 71.376 49.74 65.712 51.132 L 65.712 51.132 L 65.712 51.132 Q 66.912 53.34 70.272 53.34 L 70.272 53.34 L 70.272 53.34 Q 72.432 53.34 75.192 51.828 L 75.192 51.828 L 75.192 51.828 Q 77.952 50.316 79.968 47.868 L 79.968 47.868 L 79.968 47.868 Q 80.544 47.196 81.264 47.196 L 81.264 47.196 Z  M 69.168 40.236 L 69.168 40.236 Q 67.392 40.236 66.168 42.3 L 66.168 42.3 L 66.168 42.3 Q 64.944 44.364 64.944 47.292 L 64.944 47.292 L 64.944 47.388 L 64.944 47.388 Q 67.776 46.716 69.408 45.372 L 69.408 45.372 L 69.408 45.372 Q 71.04 44.028 71.04 42.252 L 71.04 42.252 L 71.04 42.252 Q 71.04 41.34 70.536 40.788 L 70.536 40.788 L 70.536 40.788 Q 70.032 40.236 69.168 40.236 L 69.168 40.236 Z  M 82.128 58.14 L 82.128 58.14 Q 80.304 58.14 79.56 56.22 L 79.56 56.22 L 79.56 56.22 Q 78.816 54.3 78.816 50.076 L 78.816 50.076 L 78.816 50.076 Q 78.816 43.836 80.592 38.22 L 80.592 38.22 L 80.592 38.22 Q 81.024 36.828 82.008 36.18 L 82.008 36.18 L 82.008 36.18 Q 82.992 35.532 84.768 35.532 L 84.768 35.532 L 84.768 35.532 Q 85.728 35.532 86.112 35.772 L 86.112 35.772 L 86.112 35.772 Q 86.496 36.012 86.496 36.684 L 86.496 36.684 L 86.496 36.684 Q 86.496 37.452 85.776 40.14 L 85.776 40.14 L 85.776 40.14 Q 85.296 42.06 85.008 43.476 L 85.008 43.476 L 85.008 43.476 Q 84.72 44.892 84.528 47.004 L 84.528 47.004 L 84.528 47.004 Q 85.824 43.26 87.624 40.668 L 87.624 40.668 L 87.624 40.668 Q 89.424 38.076 91.32 36.804 L 91.32 36.804 L 91.32 36.804 Q 93.216 35.532 94.896 35.532 L 94.896 35.532 L 94.896 35.532 Q 96.576 35.532 97.272 36.3 L 97.272 36.3 L 97.272 36.3 Q 97.968 37.068 97.968 38.652 L 97.968 38.652 L 97.968 38.652 Q 97.968 40.188 97.056 44.22 L 97.056 44.22 L 97.056 44.22 Q 96.672 45.948 96.528 46.812 L 96.528 46.812 L 96.528 46.812 Q 98.928 40.908 101.856 38.22 L 101.856 38.22 L 101.856 38.22 Q 104.784 35.532 107.328 35.532 L 107.328 35.532 L 107.328 35.532 Q 110.448 35.532 110.448 38.652 L 110.448 38.652 L 110.448 38.652 Q 110.448 40.524 109.392 45.42 L 109.392 45.42 L 109.392 45.42 Q 108.48 49.596 108.48 50.94 L 108.48 50.94 L 108.48 50.94 Q 108.48 52.86 109.872 52.86 L 109.872 52.86 L 109.872 52.86 Q 110.832 52.86 112.152 51.684 L 112.152 51.684 L 112.152 51.684 Q 113.472 50.508 115.68 47.868 L 115.68 47.868 L 115.68 47.868 Q 116.256 47.196 116.976 47.196 L 116.976 47.196 L 116.976 47.196 Q 117.6 47.196 117.96 47.772 L 117.96 47.772 L 117.96 47.772 Q 118.32 48.348 118.32 49.356 L 118.32 49.356 L 118.32 49.356 Q 118.32 51.276 117.408 52.332 L 117.408 52.332 L 117.408 52.332 Q 115.344 54.876 112.968 56.508 L 112.968 56.508 L 112.968 56.508 Q 110.592 58.14 107.568 58.14 L 107.568 58.14 L 107.568 58.14 Q 105.12 58.14 103.872 56.724 L 103.872 56.724 L 103.872 56.724 Q 102.624 55.308 102.624 52.62 L 102.624 52.62 L 102.624 52.62 Q 102.624 51.276 103.296 47.82 L 103.296 47.82 L 103.296 47.82 Q 103.92 44.796 103.92 43.644 L 103.92 43.644 L 103.92 43.644 Q 103.92 42.876 103.392 42.876 L 103.392 42.876 L 103.392 42.876 Q 102.768 42.876 101.616 44.484 L 101.616 44.484 L 101.616 44.484 Q 100.464 46.092 99.312 48.732 L 99.312 48.732 L 99.312 48.732 Q 98.16 51.372 97.44 54.3 L 97.44 54.3 L 97.44 54.3 Q 96.912 56.604 96.216 57.372 L 96.216 57.372 L 96.216 57.372 Q 95.52 58.14 93.984 58.14 L 93.984 58.14 L 93.984 58.14 Q 92.4 58.14 91.608 56.628 L 91.608 56.628 L 91.608 56.628 Q 90.816 55.116 90.816 52.956 L 90.816 52.956 L 90.816 52.956 Q 90.816 51.132 91.296 47.676 L 91.296 47.676 L 91.296 47.676 Q 91.68 44.604 91.68 43.644 L 91.68 43.644 L 91.68 43.644 Q 91.68 42.876 91.152 42.876 L 91.152 42.876 L 91.152 42.876 Q 90.432 42.876 89.328 44.604 L 89.328 44.604 L 89.328 44.604 Q 88.224 46.332 87.192 49.02 L 87.192 49.02 L 87.192 49.02 Q 86.16 51.708 85.536 54.3 L 85.536 54.3 L 85.536 54.3 Q 85.008 56.556 84.312 57.348 L 84.312 57.348 L 84.312 57.348 Q 83.616 58.14 82.128 58.14 L 82.128 58.14 Z  M 135.84 47.196 L 135.84 47.196 Q 136.464 47.196 136.824 47.772 L 136.824 47.772 L 136.824 47.772 Q 137.184 48.348 137.184 49.356 L 137.184 49.356 L 137.184 49.356 Q 137.184 51.276 136.272 52.332 L 136.272 52.332 L 136.272 52.332 Q 134.496 54.492 131.256 56.316 L 131.256 56.316 L 131.256 56.316 Q 128.016 58.14 124.32 58.14 L 124.32 58.14 L 124.32 58.14 Q 119.28 58.14 116.496 55.404 L 116.496 55.404 L 116.496 55.404 Q 113.712 52.668 113.712 47.916 L 113.712 47.916 L 113.712 47.916 Q 113.712 44.604 115.104 41.748 L 115.104 41.748 L 115.104 41.748 Q 116.496 38.892 118.968 37.212 L 118.968 37.212 L 118.968 37.212 Q 121.44 35.532 124.56 35.532 L 124.56 35.532 L 124.56 35.532 Q 127.344 35.532 129.024 37.188 L 129.024 37.188 L 129.024 37.188 Q 130.704 38.844 130.704 41.676 L 130.704 41.676 L 130.704 41.676 Q 130.704 44.988 128.328 47.364 L 128.328 47.364 L 128.328 47.364 Q 125.952 49.74 120.288 51.132 L 120.288 51.132 L 120.288 51.132 Q 121.488 53.34 124.848 53.34 L 124.848 53.34 L 124.848 53.34 Q 127.008 53.34 129.768 51.828 L 129.768 51.828 L 129.768 51.828 Q 132.528 50.316 134.544 47.868 L 134.544 47.868 L 134.544 47.868 Q 135.12 47.196 135.84 47.196 L 135.84 47.196 Z  M 123.744 40.236 L 123.744 40.236 Q 121.968 40.236 120.744 42.3 L 120.744 42.3 L 120.744 42.3 Q 119.52 44.364 119.52 47.292 L 119.52 47.292 L 119.52 47.388 L 119.52 47.388 Q 122.352 46.716 123.984 45.372 L 123.984 45.372 L 123.984 45.372 Q 125.616 44.028 125.616 42.252 L 125.616 42.252 L 125.616 42.252 Q 125.616 41.34 125.112 40.788 L 125.112 40.788 L 125.112 40.788 Q 124.608 40.236 123.744 40.236 L 123.744 40.236 Z " fill-rule="evenodd" fill="rgb(255,255,255)"/></g></svg>